<mxfile host="app.diagrams.net">
  <diagram name="学習時間の配分比較" id="learning-cost">
    <mxGraphModel dx="1422" dy="794" grid="1" gridSize="10" guides="1" tooltips="1" connect="1" arrows="1" fold="1" page="1" pageScale="1" pageWidth="1400" pageHeight="800" background="#ffffff">
      <root>
        <mxCell id="0"/>
        <mxCell id="1" parent="0"/>

        <!-- Title -->
        <mxCell id="title" value="学習時間の配分比較：AWS ECS環境 vs Databricks環境" style="text;html=1;strokeColor=none;fillColor=none;align=center;verticalAlign=middle;whiteSpace=wrap;rounded=0;fontSize=26;fontStyle=1;fontColor=#232F3E;" vertex="1" parent="1">
          <mxGeometry x="200" y="40" width="1000" height="50" as="geometry"/>
        </mxCell>

        <!-- Left Side: AWS ECS -->
        <mxCell id="aws-label" value="AWS ECS環境" style="text;html=1;strokeColor=none;fillColor=none;align=center;verticalAlign=middle;whiteSpace=wrap;rounded=0;fontSize=20;fontStyle=1;fontColor=#CC0000;" vertex="1" parent="1">
          <mxGeometry x="150" y="120" width="300" height="40" as="geometry"/>
        </mxCell>

        <!-- AWS Bars -->
        <mxCell id="aws-bar1" value="" style="rounded=0;whiteSpace=wrap;html=1;fillColor=#ffcccc;strokeColor=#CC0000;strokeWidth=2;" vertex="1" parent="1">
          <mxGeometry x="150" y="200" width="400" height="80" as="geometry"/>
        </mxCell>
        <mxCell id="aws-bar1-label" value="インフラ知識（Docker, AWS等）: 40%" style="text;html=1;strokeColor=none;fillColor=none;align=left;verticalAlign=middle;whiteSpace=wrap;rounded=0;fontSize=16;fontStyle=1;spacingLeft=10;" vertex="1" parent="1">
          <mxGeometry x="150" y="220" width="400" height="40" as="geometry"/>
        </mxCell>

        <mxCell id="aws-bar2" value="" style="rounded=0;whiteSpace=wrap;html=1;fillColor=#ffe6cc;strokeColor=#d79b00;strokeWidth=2;" vertex="1" parent="1">
          <mxGeometry x="150" y="300" width="300" height="60" as="geometry"/>
        </mxCell>
        <mxCell id="aws-bar2-label" value="Docker/コンテナ: 30%" style="text;html=1;strokeColor=none;fillColor=none;align=left;verticalAlign=middle;whiteSpace=wrap;rounded=0;fontSize=16;fontStyle=1;spacingLeft=10;" vertex="1" parent="1">
          <mxGeometry x="150" y="315" width="300" height="30" as="geometry"/>
        </mxCell>

        <mxCell id="aws-bar3" value="" style="rounded=0;whiteSpace=wrap;html=1;fillColor=#fff2cc;strokeColor=#d6b656;strokeWidth=2;" vertex="1" parent="1">
          <mxGeometry x="150" y="380" width="200" height="60" as="geometry"/>
        </mxCell>
        <mxCell id="aws-bar3-label" value="機械学習: 20%" style="text;html=1;strokeColor=none;fillColor=none;align=left;verticalAlign=middle;whiteSpace=wrap;rounded=0;fontSize=16;fontStyle=1;spacingLeft=10;" vertex="1" parent="1">
          <mxGeometry x="150" y="395" width="200" height="30" as="geometry"/>
        </mxCell>

        <mxCell id="aws-bar4" value="" style="rounded=0;whiteSpace=wrap;html=1;fillColor=#e1d5e7;strokeColor=#9673a6;strokeWidth=2;" vertex="1" parent="1">
          <mxGeometry x="150" y="460" width="100" height="60" as="geometry"/>
        </mxCell>
        <mxCell id="aws-bar4-label" value="データ分析: 10%" style="text;html=1;strokeColor=none;fillColor=none;align=left;verticalAlign=middle;whiteSpace=wrap;rounded=0;fontSize=16;fontStyle=1;spacingLeft=10;" vertex="1" parent="1">
          <mxGeometry x="150" y="475" width="100" height="30" as="geometry"/>
        </mxCell>

        <!-- Problem Icon -->
        <mxCell id="problem-icon" value="😰" style="text;html=1;strokeColor=none;fillColor=none;align=center;verticalAlign=middle;whiteSpace=wrap;rounded=0;fontSize=80;" vertex="1" parent="1">
          <mxGeometry x="220" y="560" width="160" height="100" as="geometry"/>
        </mxCell>
        <mxCell id="problem-text" value="本来学ぶべきことに&lt;br&gt;時間を使えない" style="text;html=1;strokeColor=none;fillColor=none;align=center;verticalAlign=middle;whiteSpace=wrap;rounded=0;fontSize=16;fontStyle=1;fontColor=#CC0000;" vertex="1" parent="1">
          <mxGeometry x="150" y="660" width="300" height="50" as="geometry"/>
        </mxCell>

        <!-- Right Side: Databricks -->
        <mxCell id="databricks-label" value="Databricks環境" style="text;html=1;strokeColor=none;fillColor=none;align=center;verticalAlign=middle;whiteSpace=wrap;rounded=0;fontSize=20;fontStyle=1;fontColor=#00AA00;" vertex="1" parent="1">
          <mxGeometry x="850" y="120" width="300" height="40" as="geometry"/>
        </mxCell>

        <!-- Databricks Bars -->
        <mxCell id="db-bar1" value="" style="rounded=0;whiteSpace=wrap;html=1;fillColor=#d5e8d4;strokeColor=#82b366;strokeWidth=2;" vertex="1" parent="1">
          <mxGeometry x="850" y="200" width="500" height="120" as="geometry"/>
        </mxCell>
        <mxCell id="db-bar1-label" value="機械学習: 50%" style="text;html=1;strokeColor=none;fillColor=none;align=left;verticalAlign=middle;whiteSpace=wrap;rounded=0;fontSize=16;fontStyle=1;spacingLeft=10;" vertex="1" parent="1">
          <mxGeometry x="850" y="245" width="500" height="30" as="geometry"/>
        </mxCell>

        <mxCell id="db-bar2" value="" style="rounded=0;whiteSpace=wrap;html=1;fillColor=#dae8fc;strokeColor=#6c8ebf;strokeWidth=2;" vertex="1" parent="1">
          <mxGeometry x="850" y="340" width="400" height="100" as="geometry"/>
        </mxCell>
        <mxCell id="db-bar2-label" value="データ分析: 40%" style="text;html=1;strokeColor=none;fillColor=none;align=left;verticalAlign=middle;whiteSpace=wrap;rounded=0;fontSize=16;fontStyle=1;spacingLeft=10;" vertex="1" parent="1">
          <mxGeometry x="850" y="375" width="400" height="30" as="geometry"/>
        </mxCell>

        <mxCell id="db-bar3" value="" style="rounded=0;whiteSpace=wrap;html=1;fillColor=#ffe6cc;strokeColor=#d79b00;strokeWidth=2;" vertex="1" parent="1">
          <mxGeometry x="850" y="460" width="100" height="60" as="geometry"/>
        </mxCell>
        <mxCell id="db-bar3-label" value="Databricks操作: 10%" style="text;html=1;strokeColor=none;fillColor=none;align=left;verticalAlign=middle;whiteSpace=wrap;rounded=0;fontSize=14;fontStyle=1;spacingLeft=10;" vertex="1" parent="1">
          <mxGeometry x="850" y="475" width="100" height="30" as="geometry"/>
        </mxCell>

        <!-- Happy Icon -->
        <mxCell id="happy-icon" value="🎉" style="text;html=1;strokeColor=none;fillColor=none;align=center;verticalAlign=middle;whiteSpace=wrap;rounded=0;fontSize=80;" vertex="1" parent="1">
          <mxGeometry x="920" y="560" width="160" height="100" as="geometry"/>
        </mxCell>
        <mxCell id="happy-text" value="本質的なスキル習得に&lt;br&gt;集中できる！" style="text;html=1;strokeColor=none;fillColor=none;align=center;verticalAlign=middle;whiteSpace=wrap;rounded=0;fontSize=16;fontStyle=1;fontColor=#00AA00;" vertex="1" parent="1">
          <mxGeometry x="850" y="660" width="300" height="50" as="geometry"/>
        </mxCell>

        <!-- Arrow -->
        <mxCell id="arrow" value="" style="shape=flexArrow;endArrow=classic;html=1;strokeWidth=3;fillColor=#ffcc99;strokeColor=#FF6600;width=40;endSize=8;" edge="1" parent="1">
          <mxGeometry width="50" height="50" relative="1" as="geometry">
            <mxPoint x="600" y="400" as="sourcePoint"/>
            <mxPoint x="800" y="400" as="targetPoint"/>
          </mxGeometry>
        </mxCell>
        <mxCell id="arrow-label" value="移行" style="text;html=1;strokeColor=none;fillColor=none;align=center;verticalAlign=middle;whiteSpace=wrap;rounded=0;fontSize=18;fontStyle=1;fontColor=#FF6600;" vertex="1" parent="1">
          <mxGeometry x="650" y="370" width="100" height="30" as="geometry"/>
        </mxCell>

      </root>
    </mxGraphModel>
  </diagram>
</mxfile>
